HIERARCHY
ROOT Hips
{
	OFFSET 0.000000 0.000000 0.000000 
	CHANNELS 6 Xposition Yposition Zposition Zrotation Yrotation Xrotation
	JOINT LeftUpLeg
	{
		OFFSET 1.363060 -1.794630 0.839290 
		CHANNELS 3 Zrotation Yrotation Xrotation
		JOINT LeftLeg
		{
			OFFSET 2.448110 -6.726130 0.000000 
			CHANNELS 3 Zrotation Yrotation Xrotation
			JOINT LeftFoot
			{
				OFFSET 2.562200 -7.039590 0.000000 
				CHANNELS 3 Zrotation Yrotation Xrotation
				JOINT LeftToeBase
				{
					OFFSET 0.157640 -0.433110 2.322550 
					CHANNELS 3 Zrotation Yrotation Xrotation
					End Site
					{
						OFFSET 0.000000 0.000000 0.000000 
					}
				}
			}
		}
	}
	JOINT RightUpLeg
	{
		OFFSET -1.305520 -1.794630 0.839290 
		CHANNELS 3 Zrotation Yrotation Xrotation
		JOINT RightLeg
		{
			OFFSET -2.542530 -6.985550 0.000000 
			CHANNELS 3 Zrotation Yrotation Xrotation
			JOINT RightFoot
			{
				OFFSET -2.568260 -7.056230 0.000000 
				CHANNELS 3 Zrotation Yrotation Xrotation
				JOINT RightToeBase
				{
					OFFSET -0.164730 -0.452590 2.363150 
					CHANNELS 3 Zrotation Yrotation Xrotation
					End Site
					{
						OFFSET 0.000000 0.000000 0.000000 
					}
				}
			}
		}
	}
	JOINT Spine
	{
		OFFSET 0.028270 2.035590 -0.193380 
		CHANNELS 3 Zrotation Yrotation Xrotation
		JOINT Spine1
		{
			OFFSET 0.056720 2.048850 -0.042750 
			CHANNELS 3 Zrotation Yrotation Xrotation
			JOINT Neck1
			{
				OFFSET -0.054170 1.746240 0.172020 
				CHANNELS 3 Zrotation Yrotation Xrotation
				JOINT Head
				{
					OFFSET 0.104070 1.761360 -0.123970 
					CHANNELS 3 Zrotation Yrotation Xrotation
					End Site
					{
						OFFSET 0.000000 0.000000 0.000000 
					}
				}
			}
			JOINT LeftArm
			{
				OFFSET 3.362410 1.200890 -0.311210 
				CHANNELS 3 Zrotation Yrotation Xrotation
				JOINT LeftForeArm
				{
					OFFSET 4.983000 -0.000000 -0.000000 
					CHANNELS 3 Zrotation Yrotation Xrotation
					JOINT LeftHand
					{
						OFFSET 3.483560 -0.000000 -0.000000 
						CHANNELS 3 Zrotation Yrotation Xrotation
						JOINT LeftHandIndex1
						{
							OFFSET 0.715260 -0.000000 -0.000000 
							CHANNELS 3 Zrotation Yrotation Xrotation
							End Site
							{
								OFFSET 0.000000 0.000000 0.000000 
							}
						}
					}
				}
			}
			JOINT RightArm
			{
				OFFSET -3.136600 1.374050 -0.404650 
				CHANNELS 3 Zrotation Yrotation Xrotation
				JOINT RightForeArm
				{
					OFFSET -5.241900 -0.000000 -0.000000 
					CHANNELS 3 Zrotation Yrotation Xrotation
					JOINT RightHand
					{
						OFFSET -3.444170 -0.000000 -0.000000 
						CHANNELS 3 Zrotation Yrotation Xrotation
						JOINT RightHandIndex1
						{
							OFFSET -0.622530 -0.000000 -0.000000 
							CHANNELS 3 Zrotation Yrotation Xrotation
							End Site
							{
								OFFSET 0.000000 0.000000 0.000000 
							}
						}
					}
				}
			}
		}
	}
}
MOTION
Frames: 7
Frame Time: 0.041667
7.746100 8.882500 12.212400 177.888000 2.973200 71.697700 -26.632200 12.197500 34.126500 2.470100 9.783400 28.278100 0.308900 4.695300 9.931900 1.955600 8.772900 25.087600 23.284600 -2.034400 26.415200 -1.175400 -6.881300 19.364100 0.420700 -11.449800 -3.147400 -1.277000 -7.161700 20.195400 4.381600 5.166300 -1.428500 -2.923600 1.651600 -17.498300 -17.611600 6.587900 42.380300 -8.594700 -2.317400 20.232300 46.371400 21.686200 2.280100 18.182200 -28.389900 -4.635600 0.000000 0.000000 -101.001000 -7.125000 0.000000 0.000000 69.692800 -20.782000 12.285500 -5.129000 8.801800 -0.395000 0.000000 0.000000 -1.538200 7.125000 0.000000 0.000000 
7.738900 8.886700 12.224000 178.026000 2.956000 71.493900 -26.306800 12.674300 34.466900 2.593600 10.006100 28.996500 0.351400 4.599800 10.565000 2.087700 9.046300 25.940400 23.284900 -2.104600 26.614300 -1.120100 -6.722900 18.897100 0.448300 -11.805900 -3.344200 -1.281700 -7.174300 20.232700 4.166700 5.236900 -1.488400 -3.348000 1.628000 -17.623100 -17.599300 6.198600 42.523200 -8.786800 -2.357200 20.201500 45.094900 20.750500 0.786700 18.020500 -28.183400 -4.558900 0.000000 0.000000 -98.644000 -7.125000 0.000000 0.000000 70.762600 -19.500600 11.516600 -4.675900 8.036700 -0.328700 0.000000 0.000000 -1.838800 7.125000 0.000000 0.000000 
7.730800 8.889400 12.233600 178.152000 2.921300 71.255500 -26.009800 13.114100 34.742100 2.731500 10.247100 29.780800 0.389300 4.572900 11.107900 2.222600 9.315100 26.785900 23.263100 -2.176000 26.934100 -1.068700 -6.571900 18.453000 0.475000 -12.136800 -3.557300 -1.300500 -7.224600 20.382600 3.943800 5.313900 -1.542500 -3.777800 1.606800 -17.760300 -17.580500 5.796300 42.682300 -8.982500 -2.402500 20.176200 43.947900 19.721800 -0.431100 17.834600 -27.944900 -4.471500 0.000000 0.000000 -96.338700 -7.125000 0.000000 0.000000 71.755300 -18.240100 10.801400 -4.248800 7.312400 -0.271600 0.000000 0.000000 -2.223700 7.125000 0.000000 0.000000 
7.722100 8.890900 12.241400 178.263000 2.873400 71.005500 -25.740700 13.510300 34.924800 2.881000 10.500000 30.611400 0.420700 4.607100 11.543000 2.359600 9.578000 27.620700 23.224700 -2.242600 27.347100 -1.022600 -6.432900 18.045800 0.499100 -12.429900 -3.721100 -1.311000 -7.252700 20.466300 3.718600 5.404300 -1.594400 -4.210100 1.591300 -17.901900 -17.540100 5.384300 42.859800 -9.171700 -2.450600 20.158800 42.995100 18.749400 -1.050200 17.625700 -27.675200 -4.374000 0.000000 0.000000 -94.298600 -7.125000 0.000000 0.000000 72.666700 -17.035200 10.093600 -3.872900 6.672600 -0.225900 0.000000 0.000000 -2.666900 7.125000 0.000000 0.000000 
7.713000 8.891000 12.247400 178.360000 2.816500 70.756300 -25.505600 13.846200 35.010500 3.037200 10.755000 31.458000 0.442800 4.676600 11.843100 2.493300 9.825700 28.414100 23.177900 -2.300800 27.833300 -0.983300 -6.312000 17.692400 0.520500 -12.686200 -3.827600 -1.310000 -7.250200 20.458700 3.494800 5.509800 -1.646000 -4.641300 1.582700 -18.042900 -17.472700 4.966400 43.050800 -9.349500 -2.498100 20.147700 42.303300 17.966100 -0.705900 17.396800 -27.377900 -4.268200 0.000000 0.000000 -92.833100 -7.125000 0.000000 0.000000 73.502800 -15.905000 9.396000 -3.564100 6.145500 -0.191400 0.000000 0.000000 -3.168200 7.125000 0.000000 0.000000 
7.703900 8.889900 12.251800 178.450000 2.745000 70.517300 -25.324100 14.107200 35.000500 3.193600 11.002000 32.286600 0.456700 4.773700 12.028500 2.619100 10.051200 29.142800 23.115500 -2.355600 28.375800 -0.952400 -6.214700 17.408800 0.538900 -12.901000 -3.928800 -1.317900 -7.271100 20.521000 3.273400 5.627800 -1.695800 -5.063100 1.581500 -18.176600 -17.422000 4.566900 43.223500 -9.683900 -2.475700 20.505800 41.471100 17.057900 -1.160000 17.006400 -26.866200 -4.090200 0.000000 0.000000 -90.257000 -7.125000 0.000000 0.000000 74.268600 -14.842700 8.703500 -3.320900 5.729600 -0.166200 0.000000 0.000000 -3.689600 7.125000 0.000000 0.000000 
7.695100 8.887900 12.254900 178.539000 2.658700 70.294600 -25.207300 14.281500 34.900400 3.343300 11.231000 33.063100 0.462900 4.873200 12.113000 2.727100 10.239600 29.756100 23.036000 -2.412900 28.956700 -0.931200 -6.147000 17.211600 0.553400 -13.068100 -4.019100 -1.336700 -7.320600 20.668900 3.059200 5.756600 -1.739900 -5.466400 1.588900 -18.294900 -17.291900 4.143200 43.424400 -9.834000 -2.517800 20.509600 40.687900 16.265000 -1.415500 16.581400 -26.302600 -3.900000 0.000000 0.000000 -87.652900 -7.125000 0.000000 0.000000 74.964200 -13.827900 8.008900 -3.135700 5.412300 -0.148200 0.000000 0.000000 -4.177700 7.125000 0.000000 0.000000 
